<?xml version="1.0" encoding="UTF-8" standalone="no"?>
<!-- Created with Inkscape (http://www.inkscape.org/) -->

<svg
   width="30.48mm"
   height="128.5mm"
   viewBox="0 0 30.480002 128.50002"
   version="1.1"
   id="svg8"
   inkscape:version="1.1.1 (c3084ef, 2021-09-22)"
   sodipodi:docname="BitBlink.svg"
   xmlns:inkscape="http://www.inkscape.org/namespaces/inkscape"
   xmlns:sodipodi="http://sodipodi.sourceforge.net/DTD/sodipodi-0.dtd"
   xmlns="http://www.w3.org/2000/svg"
   xmlns:svg="http://www.w3.org/2000/svg"
   xmlns:rdf="http://www.w3.org/1999/02/22-rdf-syntax-ns#"
   xmlns:cc="http://creativecommons.org/ns#"
   xmlns:dc="http://purl.org/dc/elements/1.1/">
  <defs
     id="defs2" />
  <sodipodi:namedview
     id="base"
     pagecolor="#ffffff"
     bordercolor="#666666"
     borderopacity="1.0"
     inkscape:pageopacity="0.0"
     inkscape:pageshadow="2"
     inkscape:zoom="1.29512"
     inkscape:cx="45.941689"
     inkscape:cy="242.83464"
     inkscape:document-units="mm"
     inkscape:current-layer="layer2"
     showgrid="false"
     units="mm"
     inkscape:snap-bbox="true"
     inkscape:snap-page="true"
     inkscape:bbox-nodes="false"
     inkscape:snap-bbox-edge-midpoints="false"
     inkscape:window-width="1400"
     inkscape:window-height="855"
     inkscape:window-x="40"
     inkscape:window-y="23"
     inkscape:window-maximized="0"
     inkscape:snap-bbox-midpoints="true"
     inkscape:snap-nodes="false"
     inkscape:pagecheckerboard="0" />
  <metadata
     id="metadata5">
    <rdf:RDF>
      <cc:Work
         rdf:about="">
        <dc:format>image/svg+xml</dc:format>
        <dc:type
           rdf:resource="http://purl.org/dc/dcmitype/StillImage" />
      </cc:Work>
    </rdf:RDF>
  </metadata>
  <g
     inkscape:label="panel"
     inkscape:groupmode="layer"
     id="layer1"
     transform="translate(0,-168.49998)"
     style="display:inline">
    <rect
       style="display:inline;opacity:1;vector-effect:none;fill:#e6e6e6;fill-opacity:1;fill-rule:evenodd;stroke:none;stroke-width:0.649358;stroke-linecap:butt;stroke-linejoin:miter;stroke-miterlimit:4;stroke-dasharray:none;stroke-dashoffset:0;stroke-opacity:1;paint-order:normal"
       id="rect420"
       width="30.48"
       height="128.5"
       x="5.9211732e-17"
       y="168.49997" />
    <path
       style="display:inline;fill:#800080;stroke:#800080;stroke-width:0.31400003;stroke-linecap:butt;stroke-linejoin:miter;stroke-opacity:1;stroke-miterlimit:4;stroke-dasharray:0.31400003,0.31400003;stroke-dashoffset:0"
       d="m 10.125495,249.61376 c 8.853175,-3.89328 8.853175,-3.89328 8.853175,-3.89328"
       id="path93145-1" />
    <path
       style="display:inline;fill:#808080;stroke:#800080;stroke-width:0.31400003;stroke-linecap:butt;stroke-linejoin:miter;stroke-opacity:1;stroke-miterlimit:4;stroke-dasharray:0.31400003, 0.31400003;stroke-dashoffset:0"
       d="m 10.276686,218.52522 c 8.853176,-3.89328 8.853176,-3.89328 8.853176,-3.89328"
       id="path93145-1-6" />
    <g
       aria-label="2"
       id="text47168-9-3-4-6-5-8"
       style="font-size:4.23333px;line-height:1.25;font-family:Arial;-inkscape-font-specification:Arial;display:inline;stroke-width:0.264583"
       transform="translate(-16.593162)">
      <path
         d="m 24.77368,269.80158 v 0.3576 h -2.002977 q -0.0041,-0.13436 0.04341,-0.25838 0.07648,-0.20464 0.243913,-0.40308 0.169498,-0.19844 0.487825,-0.45888 0.494026,-0.40515 0.667659,-0.64079 0.173633,-0.23771 0.173633,-0.44855 0,-0.22118 -0.159164,-0.37207 -0.157096,-0.15296 -0.411344,-0.15296 -0.268717,0 -0.429947,0.16123 -0.161231,0.16123 -0.163298,0.44648 l -0.382405,-0.0393 q 0.03927,-0.42789 0.295589,-0.65113 0.256315,-0.22531 0.688329,-0.22531 0.436149,0 0.690397,0.24185 0.254248,0.24184 0.254248,0.59945 0,0.1819 -0.07441,0.3576 -0.07441,0.1757 -0.248047,0.37 -0.171565,0.1943 -0.572574,0.5333 -0.334863,0.28112 -0.429948,0.3824 -0.09508,0.0992 -0.157096,0.20051 z"
         id="path110853" />
    </g>
    <g
       aria-label="rst"
       id="text47168-9-9-6-4"
       style="font-size:4.23333px;line-height:1.25;font-family:Arial;-inkscape-font-specification:Arial;display:inline;stroke-width:0.264583"
       transform="translate(0,-0.193316)">
      <path
         d="m 23.237418,256.28598 v -2.19521 h 0.334863 v 0.33279 q 0.128157,-0.23357 0.235644,-0.30799 0.109554,-0.0744 0.239779,-0.0744 0.188102,0 0.382405,0.11989 l -0.128157,0.3452 q -0.136426,-0.0806 -0.272852,-0.0806 -0.121956,0 -0.219108,0.0744 -0.09715,0.0724 -0.138492,0.20258 -0.06201,0.19843 -0.06201,0.43408 v 1.14928 z"
         id="path110828" />
      <path
         d="m 24.50659,255.63072 0.367936,-0.0579 q 0.03101,0.22117 0.171566,0.33899 0.142626,0.11783 0.396874,0.11783 0.256315,0 0.380339,-0.10336 0.124023,-0.10542 0.124023,-0.24598 0,-0.12609 -0.109554,-0.19843 -0.07648,-0.0496 -0.380338,-0.12609 -0.409277,-0.10336 -0.568441,-0.17777 -0.157096,-0.0765 -0.239778,-0.20877 -0.08062,-0.13436 -0.08062,-0.29559 0,-0.14676 0.06615,-0.27079 0.06821,-0.12609 0.183968,-0.20877 0.08682,-0.0641 0.235644,-0.10749 0.150895,-0.0455 0.322461,-0.0455 0.258381,0 0.452685,0.0744 0.19637,0.0744 0.289387,0.20257 0.09302,0.12609 0.128158,0.339 l -0.363802,0.0496 q -0.02481,-0.1695 -0.144694,-0.26458 -0.117822,-0.0951 -0.334863,-0.0951 -0.256315,0 -0.365869,0.0847 -0.109554,0.0848 -0.109554,0.19844 0,0.0724 0.04548,0.13022 0.04547,0.0599 0.142627,0.0992 0.05581,0.0207 0.328661,0.0951 0.394808,0.10542 0.549837,0.17363 0.157096,0.0661 0.24598,0.1943 0.08888,0.12816 0.08888,0.31833 0,0.18603 -0.109554,0.3514 -0.107487,0.1633 -0.312125,0.25425 -0.204639,0.0889 -0.463021,0.0889 -0.42788,0 -0.653189,-0.17777 -0.223242,-0.17776 -0.285254,-0.5271 z"
         id="path110830" />
      <path
         d="m 27.584436,255.95318 0.05374,0.32867 q -0.157096,0.0331 -0.281119,0.0331 -0.202572,0 -0.314193,-0.0641 -0.111621,-0.0641 -0.157096,-0.16743 -0.04547,-0.10542 -0.04547,-0.44028 v -1.26297 h -0.272851 v -0.28939 h 0.272851 v -0.54364 l 0.370003,-0.22324 v 0.76688 h 0.374137 v 0.28939 h -0.374137 v 1.28364 q 0,0.15916 0.0186,0.20464 0.02067,0.0455 0.06408,0.0723 0.04547,0.0269 0.128157,0.0269 0.06201,0 0.163298,-0.0145 z"
         id="path110832" />
    </g>
    <g
       aria-label="rst"
       id="text47168-9-9-6"
       style="font-size:4.23333px;line-height:1.25;font-family:Arial;-inkscape-font-specification:Arial;display:inline;stroke-width:0.264583"
       transform="translate(0,-12.506751)">
      <path
         d="m 2.9931029,268.59937 v -2.19522 h 0.334863 v 0.3328 q 0.1281574,-0.23358 0.2356443,-0.30799 0.1095539,-0.0744 0.2397784,-0.0744 0.1881021,0 0.3824053,0.11989 l -0.1281574,0.3452 q -0.1364257,-0.0806 -0.2728514,-0.0806 -0.1219562,0 -0.2191079,0.0744 -0.097152,0.0724 -0.1384927,0.20257 -0.062012,0.19844 -0.062012,0.43408 v 1.14929 z"
         id="path110874" />
      <path
         d="m 4.262275,267.94411 0.3679359,-0.0579 q 0.031006,0.22118 0.1715656,0.339 0.1426268,0.11782 0.3968747,0.11782 0.2563149,0 0.3803382,-0.10335 0.1240233,-0.10542 0.1240233,-0.24598 0,-0.12609 -0.1095539,-0.19844 -0.076481,-0.0496 -0.3803382,-0.12609 -0.409277,-0.10335 -0.5684403,-0.17777 -0.1570962,-0.0765 -0.2397785,-0.20877 -0.080615,-0.13436 -0.080615,-0.29559 0,-0.14676 0.066146,-0.27078 0.068213,-0.12609 0.1839679,-0.20877 0.086816,-0.0641 0.2356443,-0.10749 0.1508951,-0.0455 0.3224607,-0.0455 0.2583819,0 0.4526852,0.0744 0.1963702,0.0744 0.2893877,0.20257 0.093018,0.12609 0.1281575,0.339 l -0.3638018,0.0496 q -0.024805,-0.16949 -0.1446939,-0.26458 -0.1178221,-0.0951 -0.334863,-0.0951 -0.2563149,0 -0.3658688,0.0848 -0.109554,0.0847 -0.109554,0.19843 0,0.0724 0.045475,0.13023 0.045475,0.0599 0.1426268,0.0992 0.05581,0.0207 0.3286618,0.0951 0.3948076,0.10542 0.5498368,0.17363 0.1570962,0.0662 0.2459796,0.19431 0.088883,0.12815 0.088883,0.31832 0,0.18604 -0.1095539,0.3514 -0.1074869,0.1633 -0.3121254,0.25425 -0.2046385,0.0889 -0.4630205,0.0889 -0.4278805,0 -0.6531895,-0.17776 -0.223242,-0.17777 -0.2852537,-0.5271 z"
         id="path110876" />
      <path
         d="m 7.3401207,268.26657 0.053744,0.32866 q -0.1570962,0.0331 -0.2811196,0.0331 -0.2025714,0 -0.3141924,-0.0641 -0.111621,-0.0641 -0.1570962,-0.16744 -0.045475,-0.10542 -0.045475,-0.44028 v -1.26297 H 6.3231294 v -0.28939 h 0.2728513 v -0.54363 l 0.370003,-0.22325 v 0.76688 h 0.374137 v 0.28939 h -0.374137 v 1.28364 q 0,0.15916 0.018604,0.20464 0.02067,0.0455 0.064079,0.0723 0.045475,0.0269 0.1281574,0.0269 0.062012,0 0.1632974,-0.0145 z"
         id="path110878" />
    </g>
    <g
       aria-label="20"
       id="text47168-9-3-4-6-5-9-6-2"
       style="font-size:4.23333px;line-height:1.25;font-family:Arial;-inkscape-font-specification:Arial;display:inline;stroke-width:0.264583"
       transform="translate(-18.520839)">
      <path
         d="m 24.324246,200.29177 v 0.3576 h -2.002977 q -0.0041,-0.13436 0.04341,-0.25838 0.07648,-0.20464 0.243913,-0.40308 0.169498,-0.19844 0.487825,-0.45889 0.494026,-0.40514 0.667659,-0.64078 0.173632,-0.23771 0.173632,-0.44855 0,-0.22118 -0.159163,-0.37207 -0.157096,-0.15297 -0.411344,-0.15297 -0.268717,0 -0.429948,0.16123 -0.16123,0.16123 -0.163297,0.44649 l -0.382405,-0.0393 q 0.03927,-0.42788 0.295589,-0.65112 0.256315,-0.22531 0.688329,-0.22531 0.436149,0 0.690397,0.24185 0.254248,0.24184 0.254248,0.59944 0,0.18191 -0.07441,0.3576 -0.07441,0.1757 -0.248047,0.37001 -0.171566,0.1943 -0.572574,0.5333 -0.334863,0.28112 -0.429948,0.3824 -0.09508,0.0992 -0.157096,0.20051 z"
         id="path110738" />
      <path
         d="m 24.725255,199.15489 q 0,-0.53744 0.109553,-0.86403 0.111621,-0.32866 0.328662,-0.50643 0.219108,-0.17777 0.549837,-0.17777 0.243913,0 0.427881,0.0992 0.183968,0.0971 0.303857,0.28319 0.119889,0.18397 0.188102,0.45062 0.06821,0.26458 0.06821,0.7152 0,0.5333 -0.109554,0.86196 -0.109554,0.32659 -0.328662,0.50643 -0.217041,0.17776 -0.549837,0.17776 -0.438216,0 -0.688329,-0.31419 -0.299723,-0.37827 -0.299723,-1.23196 z m 0.382405,0 q 0,0.7462 0.173632,0.99425 0.1757,0.24598 0.432015,0.24598 0.256315,0 0.429948,-0.24805 0.175699,-0.24804 0.175699,-0.99218 0,-0.74828 -0.175699,-0.99426 -0.173633,-0.24598 -0.434082,-0.24598 -0.256315,0 -0.409277,0.21704 -0.192236,0.27699 -0.192236,1.0232 z"
         id="path110740" />
    </g>
    <g
       aria-label="16"
       id="text47168-9-3-4-6-5-9-6"
       style="font-size:4.23333px;line-height:1.25;font-family:Arial;-inkscape-font-specification:Arial;display:inline;stroke-width:0.264583"
       transform="translate(-18.195984)">
      <path
         d="m 23.437149,215.61723 h -0.37207 v -2.37091 q -0.134359,0.12816 -0.353467,0.25632 -0.217041,0.12815 -0.390673,0.19223 v -0.35967 q 0.312125,-0.14676 0.545702,-0.35553 0.233578,-0.20877 0.330729,-0.40514 h 0.239779 z"
         id="path110761" />
      <path
         d="m 26.322758,213.329 -0.370003,0.0289 q -0.04961,-0.21911 -0.140559,-0.31832 -0.150895,-0.15917 -0.37207,-0.15917 -0.177767,0 -0.312126,0.0992 -0.175699,0.12816 -0.276985,0.37414 -0.101286,0.24598 -0.10542,0.70073 0.134359,-0.20464 0.328662,-0.30386 0.194303,-0.0992 0.40721,-0.0992 0.37207,0 0.632519,0.27492 0.262516,0.27285 0.262516,0.70693 0,0.28526 -0.124024,0.53124 -0.121956,0.24391 -0.33693,0.37414 -0.214973,0.13022 -0.487825,0.13022 -0.465087,0 -0.758609,-0.34106 -0.293522,-0.34314 -0.293522,-1.12862 0,-0.8785 0.324528,-1.27744 0.283186,-0.34726 0.762743,-0.34726 0.357601,0 0.584977,0.2005 0.229443,0.20051 0.274918,0.55397 z m -1.519285,1.30638 q 0,0.19224 0.08061,0.36794 0.08268,0.1757 0.229443,0.26871 0.146761,0.091 0.307991,0.091 0.235644,0 0.405143,-0.19017 0.169499,-0.19017 0.169499,-0.51677 0,-0.31419 -0.167432,-0.49402 -0.167431,-0.1819 -0.421679,-0.1819 -0.252181,0 -0.427881,0.1819 -0.175699,0.17983 -0.175699,0.47335 z"
         id="path110763" />
    </g>
    <g
       aria-label="10"
       id="text47168-9-3-4-6-5-9"
       style="font-size:4.23333px;line-height:1.25;font-family:Arial;-inkscape-font-specification:Arial;display:inline;stroke-width:0.264583"
       transform="translate(-18.187713)">
      <path
         d="m 23.437149,238.93834 h -0.37207 v -2.37091 q -0.134359,0.12815 -0.353467,0.25631 -0.217041,0.12816 -0.390673,0.19224 v -0.35967 q 0.312125,-0.14676 0.545702,-0.35553 0.233578,-0.20878 0.330729,-0.40515 h 0.239779 z"
         id="path110784" />
      <path
         d="m 24.392128,237.44386 q 0,-0.53744 0.109554,-0.86403 0.111621,-0.32866 0.328662,-0.50643 0.219108,-0.17777 0.549837,-0.17777 0.243913,0 0.427881,0.0992 0.183967,0.0971 0.303857,0.28319 0.119889,0.18397 0.188102,0.45062 0.06821,0.26458 0.06821,0.7152 0,0.5333 -0.109554,0.86196 -0.109554,0.3266 -0.328662,0.50643 -0.217041,0.17777 -0.549837,0.17777 -0.438216,0 -0.688329,-0.3142 -0.299724,-0.37827 -0.299724,-1.23196 z m 0.382406,0 q 0,0.74621 0.173632,0.99425 0.1757,0.24598 0.432015,0.24598 0.256315,0 0.429948,-0.24805 0.175699,-0.24804 0.175699,-0.99218 0,-0.74828 -0.175699,-0.99426 -0.173633,-0.24598 -0.434082,-0.24598 -0.256315,0 -0.409277,0.21705 -0.192236,0.27698 -0.192236,1.02319 z"
         id="path110786" />
    </g>
    <g
       aria-label="8"
       id="text47168-9-3-4-6-5"
       style="font-size:4.23333px;line-height:1.25;font-family:Arial;-inkscape-font-specification:Arial;display:inline;stroke-width:0.264583"
       transform="translate(-16.137195)">
      <path
         d="m 22.897646,245.63637 q -0.23151,-0.0847 -0.343131,-0.24185 -0.111621,-0.15709 -0.111621,-0.3762 0,-0.33073 0.237711,-0.55604 0.237712,-0.22531 0.632519,-0.22531 0.396875,0 0.638721,0.23151 0.241845,0.22945 0.241845,0.56017 0,0.21084 -0.111621,0.36794 -0.109554,0.15503 -0.334863,0.23978 0.279053,0.0909 0.423746,0.29352 0.146761,0.20257 0.146761,0.48369 0,0.38861 -0.274918,0.65319 -0.274918,0.26458 -0.723469,0.26458 -0.448552,0 -0.72347,-0.26458 -0.274918,-0.26665 -0.274918,-0.66352 0,-0.29559 0.148828,-0.49403 0.150895,-0.2005 0.42788,-0.27285 z m -0.07441,-0.63045 q 0,0.21497 0.138493,0.3514 0.138493,0.13642 0.359668,0.13642 0.214973,0 0.351399,-0.13436 0.138493,-0.13642 0.138493,-0.33279 0,-0.20464 -0.142627,-0.34313 -0.14056,-0.14056 -0.3514,-0.14056 -0.212906,0 -0.353466,0.13642 -0.14056,0.13643 -0.14056,0.3266 z m -0.119889,1.39939 q 0,0.15917 0.07441,0.308 0.07648,0.14882 0.225309,0.23151 0.148828,0.0806 0.320394,0.0806 0.26665,0 0.440282,-0.17157 0.173633,-0.17156 0.173633,-0.43614 0,-0.26872 -0.179834,-0.44442 -0.177766,-0.1757 -0.446484,-0.1757 -0.262516,0 -0.436148,0.17363 -0.171566,0.17363 -0.171566,0.43408 z"
         id="path110807" />
    </g>
    <g
       aria-label="trig"
       id="text47168-9"
       style="font-size:4.23333px;line-height:1.25;font-family:Arial;-inkscape-font-specification:Arial;stroke-width:0.264583"
       transform="translate(-1.0583333)">
      <path
         d="m 5.4433679,288.39749 0.053743,0.32866 q -0.1570962,0.0331 -0.2811195,0.0331 -0.2025715,0 -0.3141925,-0.0641 -0.111621,-0.0641 -0.1570962,-0.16744 -0.045475,-0.10542 -0.045475,-0.44028 v -1.26297 H 4.4263766 v -0.28939 h 0.2728513 v -0.54363 l 0.3700029,-0.22324 v 0.76687 h 0.3741371 v 0.28939 H 5.0692308 v 1.28364 q 0,0.15917 0.018604,0.20464 0.020671,0.0455 0.064079,0.0723 0.045475,0.0269 0.1281574,0.0269 0.062012,0 0.1632974,-0.0145 z"
         id="path110926" />
      <path
         d="m 5.8009685,288.73029 v -2.19522 h 0.334863 v 0.3328 q 0.1281574,-0.23358 0.2356443,-0.30799 0.109554,-0.0744 0.2397785,-0.0744 0.188102,0 0.3824052,0.11989 l -0.1281574,0.3452 q -0.1364257,-0.0806 -0.2728513,-0.0806 -0.1219563,0 -0.2191079,0.0744 -0.097152,0.0724 -0.1384928,0.20257 -0.062012,0.19844 -0.062012,0.43408 v 1.14929 z"
         id="path110928" />
      <path
         d="m 7.2210357,286.12786 v -0.42788 h 0.37207 v 0.42788 z m 0,2.60243 v -2.19522 h 0.37207 v 2.19522 z"
         id="path110930" />
      <path
         d="m 8.0933332,288.91219 0.3617347,0.0537 q 0.022738,0.16743 0.1260904,0.24391 0.1384927,0.10336 0.3782711,0.10336 0.258382,0 0.3989418,-0.10336 0.1405597,-0.10335 0.1901691,-0.28939 0.028939,-0.11368 0.026872,-0.47749 -0.2439126,0.28733 -0.6077143,0.28733 -0.4526852,0 -0.7007319,-0.3266 -0.2480466,-0.32659 -0.2480466,-0.78341 0,-0.3142 0.113688,-0.57878 0.1136881,-0.26665 0.3286619,-0.41134 0.2170408,-0.1447 0.5084956,-0.1447 0.3886065,0 0.6407872,0.3142 v -0.26459 h 0.3431313 v 1.89756 q 0,0.51263 -0.1054199,0.72554 -0.1033528,0.21497 -0.3307289,0.33899 -0.225309,0.12403 -0.5560379,0.12403 -0.3927406,0 -0.6345861,-0.17777 -0.2418455,-0.1757 -0.2335772,-0.53123 z m 0.3079912,-1.31878 q 0,0.43201 0.1715657,0.63045 0.1715656,0.19843 0.4299475,0.19843 0.2563149,0 0.4299476,-0.19637 0.1736326,-0.19843 0.1736326,-0.62011 0,-0.40308 -0.1798338,-0.60772 -0.1777668,-0.20464 -0.4299476,-0.20464 -0.2480466,0 -0.4216793,0.20258 -0.1736327,0.2005 -0.1736327,0.59738 z"
         id="path110932" />
    </g>
    <g
       aria-label="Hallo"
       id="text18410"
       style="font-size:10.5833px;line-height:1.25;stroke-width:0.264583" />
    <g
       aria-label="BitBlink"
       id="mod_name"
       style="font-size:4.58611px;line-height:1.25;font-family:Arial;-inkscape-font-specification:Arial;stroke-width:0.264583"
       inkscape:label="mod_name">
      <path
         d="m 7.0068901,175.44871 h 1.3122366 q 0.3896402,0 0.5799816,0.0336 0.1925808,0.0314 0.3426147,0.13435 0.1522732,0.10301 0.2530422,0.27544 0.1007691,0.17019 0.1007691,0.38292 0,0.23065 -0.1254015,0.42323 -0.1231621,0.19258 -0.3358967,0.28887 0.3000677,0.0873 0.4612982,0.29783 0.1612304,0.2105 0.1612304,0.49489 0,0.22393 -0.1052477,0.43667 -0.1030083,0.21049 -0.2843925,0.33813 -0.179145,0.1254 -0.4433837,0.15451 -0.1657091,0.0179 -0.7994343,0.0224 H 7.0068901 Z m 0.6628362,0.54639 v 0.75912 h 0.4344264 q 0.3874009,0 0.481452,-0.0112 0.1701877,-0.0202 0.2664781,-0.11645 0.09853,-0.0985 0.09853,-0.25752 0,-0.15227 -0.085094,-0.24632 -0.082855,-0.0963 -0.2485636,-0.11645 -0.09853,-0.0112 -0.5665458,-0.0112 z m 0,1.30552 v 0.87781 h 0.6135714 q 0.3582898,0 0.4545802,-0.0202 0.1477946,-0.0269 0.2396064,-0.12988 0.094051,-0.10524 0.094051,-0.27991 0,-0.1478 -0.071658,-0.2508 -0.071658,-0.10301 -0.208256,-0.15004 -0.1343587,-0.047 -0.5866996,-0.047 z"
         style="font-weight:bold;-inkscape-font-specification:'Arial Bold'"
         id="path15116" />
      <path
         d="m 10.314353,176.03093 v -0.58222 H 10.9436 v 0.58222 z m 0,2.70061 v -2.37815 H 10.9436 v 2.37815 z"
         style="font-weight:bold;-inkscape-font-specification:'Arial Bold'"
         id="path15118" />
      <path
         d="m 12.676827,176.35339 v 0.5016 h -0.429948 v 0.95843 q 0,0.29111 0.0112,0.34037 0.01344,0.047 0.05598,0.0784 0.04479,0.0314 0.107486,0.0314 0.08733,0 0.253043,-0.0605 l 0.05374,0.48817 q -0.219452,0.0941 -0.497127,0.0941 -0.170188,0 -0.306786,-0.056 -0.136598,-0.0582 -0.201538,-0.1478 -0.0627,-0.0918 -0.08733,-0.24632 -0.02015,-0.10973 -0.02015,-0.44338 v -1.03681 h -0.288871 v -0.5016 h 0.288871 v -0.4725 l 0.631486,-0.36724 v 0.83974 z"
         style="font-weight:bold;-inkscape-font-specification:'Arial Bold'"
         id="path15120" />
      <path
         d="m 13.124689,175.44871 h 1.312237 q 0.38964,0 0.579982,0.0336 0.19258,0.0314 0.342614,0.13435 0.152273,0.10301 0.253043,0.27544 0.100769,0.17019 0.100769,0.38292 0,0.23065 -0.125402,0.42323 -0.123162,0.19258 -0.335897,0.28887 0.300068,0.0873 0.461299,0.29783 0.16123,0.2105 0.16123,0.49489 0,0.22393 -0.105248,0.43667 -0.103008,0.21049 -0.284392,0.33813 -0.179145,0.1254 -0.443384,0.15451 -0.165709,0.0179 -0.799434,0.0224 h -1.117417 z m 0.662837,0.54639 v 0.75912 h 0.434426 q 0.387401,0 0.481452,-0.0112 0.170188,-0.0202 0.266478,-0.11645 0.09853,-0.0985 0.09853,-0.25752 0,-0.15227 -0.08509,-0.24632 -0.08286,-0.0963 -0.248564,-0.11645 -0.09853,-0.0112 -0.566545,-0.0112 z m 0,1.30552 v 0.87781 h 0.613571 q 0.35829,0 0.45458,-0.0202 0.147795,-0.0269 0.239607,-0.12988 0.09405,-0.10524 0.09405,-0.27991 0,-0.1478 -0.07166,-0.2508 -0.07166,-0.10301 -0.208256,-0.15004 -0.134359,-0.047 -0.5867,-0.047 z"
         style="font-weight:bold;-inkscape-font-specification:'Arial Bold'"
         id="path15122" />
      <path
         d="m 16.432152,178.73154 v -3.28283 h 0.629247 v 3.28283 z"
         style="font-weight:bold;-inkscape-font-specification:'Arial Bold'"
         id="path15124" />
      <path
         d="m 17.704081,176.03093 v -0.58222 h 0.629247 v 0.58222 z m 0,2.70061 v -2.37815 h 0.629247 v 2.37815 z"
         style="font-weight:bold;-inkscape-font-specification:'Arial Bold'"
         id="path15126" />
      <path
         d="m 21.139186,178.73154 h -0.629247 v -1.21371 q 0,-0.38516 -0.04031,-0.49713 -0.04031,-0.1142 -0.13212,-0.1769 -0.08957,-0.0627 -0.217213,-0.0627 -0.16347,0 -0.29335,0.0896 -0.12988,0.0896 -0.179145,0.23737 -0.04703,0.14779 -0.04703,0.54639 v 1.07711 h -0.629247 v -2.37815 h 0.58446 v 0.34933 q 0.311265,-0.40308 0.78376,-0.40308 0.208256,0 0.380683,0.0761 0.172427,0.0739 0.25976,0.19034 0.08957,0.11645 0.123162,0.26424 0.03583,0.1478 0.03583,0.42323 z"
         style="font-weight:bold;-inkscape-font-specification:'Arial Bold'"
         id="path15128" />
      <path
         d="m 21.757236,178.73154 v -3.28283 h 0.629247 v 1.74218 l 0.736733,-0.8375 h 0.774802 l -0.81287,0.86885 0.871092,1.5093 h -0.678511 l -0.597897,-1.06815 -0.293349,0.30678 v 0.76137 z"
         style="font-weight:bold;-inkscape-font-specification:'Arial Bold'"
         id="path15130" />
    </g>
    <ellipse
       style="fill:#000000;stroke-width:0.264583"
       id="path93520"
       cx="11.339286"
       cy="261.04742"
       rx="0.56696427"
       ry="0.66145831" />
    <g
       aria-label="ds"
       id="text27563"
       style="font-style:italic;font-weight:bold;font-size:4.93889px;line-height:1.25;font-family:Arial;-inkscape-font-specification:'Arial Bold Italic';stroke-width:0.264583">
      <path
         d="m 14.260558,285.53452 h -0.655947 l 0.05788,-0.27733 q -0.188102,0.18086 -0.371381,0.26044 -0.180868,0.0772 -0.409967,0.0772 -0.397908,0 -0.6463,-0.27009 -0.24598,-0.27251 -0.24598,-0.80305 0,-0.61495 0.347266,-1.11174 0.347266,-0.49678 0.918807,-0.49678 0.516075,0 0.774113,0.40997 l 0.27733,-1.32395 h 0.69212 z m -1.59887,-1.0418 q 0,0.27492 0.13746,0.42926 0.139871,0.15434 0.342442,0.15434 0.188103,0 0.349678,-0.12782 0.163986,-0.13022 0.260449,-0.39549 0.09887,-0.26527 0.09887,-0.50884 0,-0.27733 -0.149517,-0.44855 -0.149517,-0.17123 -0.344854,-0.17123 -0.303858,0 -0.499195,0.33762 -0.195337,0.33762 -0.195337,0.73071 z"
         style="fill:#800080"
         id="path110953" />
      <path
         d="m 14.824864,284.81828 0.670416,-0.10611 q 0.08923,0.21222 0.221864,0.30145 0.132637,0.0868 0.361735,0.0868 0.236334,0 0.378617,-0.10611 0.09887,-0.0723 0.09887,-0.17604 0,-0.0699 -0.05064,-0.1254 -0.05306,-0.0531 -0.286977,-0.13023 -0.627007,-0.20739 -0.776524,-0.32797 -0.233922,-0.1881 -0.233922,-0.49196 0,-0.30386 0.226687,-0.52331 0.315915,-0.30627 0.9381,-0.30627 0.494371,0 0.747586,0.18087 0.253214,0.18087 0.320738,0.48955 l -0.639065,0.11093 q -0.05064,-0.13987 -0.163987,-0.20981 -0.15434,-0.0941 -0.371381,-0.0941 -0.217041,0 -0.313504,0.0724 -0.09405,0.0723 -0.09405,0.1664 0,0.0965 0.09646,0.15916 0.06029,0.0386 0.388262,0.13505 0.506429,0.1471 0.67765,0.28939 0.241157,0.20016 0.241157,0.48231 0,0.36415 -0.306269,0.63183 -0.306269,0.26768 -0.863341,0.26768 -0.554661,0 -0.858518,-0.20257 -0.301446,-0.20498 -0.409967,-0.57395 z"
         style="fill:#800080"
         id="path110955" />
    </g>
    <g
       aria-label="·≈//~."
       id="text10531"
       style="font-size:4.93889px;line-height:1.25;font-family:Arial;-inkscape-font-specification:Arial;stroke-width:0.264583">
      <path
         d="m 9.9719308,171.98432 v -0.67765 h 0.6776502 v 0.67765 z"
         style="font-weight:bold;-inkscape-font-specification:'Arial Bold';fill:#008000"
         id="path14751" />
      <path
         d="m 11.213888,171.53095 v -0.62219 q 0.306269,-0.33279 0.713824,-0.33279 0.151929,0 0.279742,0.0313 0.127813,0.0289 0.40032,0.13987 0.272507,0.10852 0.359323,0.13263 0.08682,0.0241 0.149518,0.0241 0.135047,0 0.311092,-0.082 0.178456,-0.0844 0.347266,-0.26769 v 0.65113 q -0.110933,0.11575 -0.311093,0.21945 -0.197748,0.10128 -0.409966,0.10128 -0.120578,0 -0.236334,-0.0289 -0.113343,-0.0289 -0.361735,-0.13746 -0.371381,-0.16158 -0.583599,-0.16158 -0.33762,0 -0.658358,0.3328 z m 0,1.16961 v -0.6246 q 0.306269,-0.33038 0.713824,-0.33038 0.151929,0 0.279742,0.0314 0.127813,0.0289 0.40032,0.13746 0.272507,0.10852 0.359323,0.13263 0.08682,0.0241 0.149518,0.0241 0.135047,0 0.311092,-0.082 0.178456,-0.0844 0.347266,-0.26527 v 0.65113 q -0.110933,0.11575 -0.311093,0.21945 -0.197748,0.10128 -0.409966,0.10128 -0.120578,0 -0.236334,-0.0289 -0.113343,-0.0314 -0.361735,-0.13988 -0.371381,-0.16157 -0.583599,-0.16157 -0.33762,0 -0.658358,0.33521 z"
         style="font-weight:bold;-inkscape-font-specification:'Arial Bold';fill:#008000"
         id="path14753" />
      <path
         d="m 13.842497,173.42644 0.875399,-3.65594 h 0.50884 l -0.885045,3.65594 z"
         style="font-weight:bold;-inkscape-font-specification:'Arial Bold';fill:#800080"
         id="path14755" />
      <path
         d="m 15.212267,173.42644 0.875399,-3.65594 h 0.50884 l -0.885045,3.65594 z"
         style="font-weight:bold;-inkscape-font-specification:'Arial Bold';fill:#800080"
         id="path14757" />
      <path
         d="m 16.750847,172.11455 v -0.6246 q 0.306269,-0.3328 0.713824,-0.3328 0.151928,0 0.279741,0.0314 0.127813,0.0289 0.458198,0.16399 0.332796,0.13264 0.450963,0.13264 0.135048,0 0.311092,-0.082 0.178456,-0.0844 0.347266,-0.26527 v 0.65112 q -0.110932,0.11576 -0.311092,0.21705 -0.197749,0.10128 -0.409967,0.10128 -0.120578,0 -0.236333,-0.0289 -0.113344,-0.0289 -0.361735,-0.13746 -0.371382,-0.16157 -0.5836,-0.16157 -0.337619,0 -0.658357,0.33521 z"
         style="font-weight:bold;-inkscape-font-specification:'Arial Bold';fill:#ff0000"
         id="path14759" />
      <path
         d="m 19.828006,173.36615 v -0.67765 h 0.677651 v 0.67765 z"
         style="font-weight:bold;-inkscape-font-specification:'Arial Bold';fill:#ff0000"
         id="path14761" />
    </g>
    <path
       style="fill:#800080;stroke:#800080;stroke-width:0.26458299;stroke-linecap:butt;stroke-linejoin:miter;stroke-opacity:1;stroke-miterlimit:4;stroke-dasharray:0.79374896,0.26458299;stroke-dashoffset:0"
       d="m 13.239056,261.13597 c 6.469933,-0.0374 6.469933,-0.0374 6.469933,-0.0374"
       id="path9832" />
    <rect
       style="fill:#808080;stroke:#800080;stroke-width:0.31689799;stroke-miterlimit:4;stroke-dasharray:none;stroke-dashoffset:0;stroke-opacity:1"
       id="rect11339"
       width="11.964609"
       height="9.3841152"
       x="18.45845"
       y="275.85843" />
  </g>
  <g
     inkscape:groupmode="layer"
     id="layer2"
     inkscape:label="components"
     style="display:inline">
    <circle
       style="display:inline;opacity:1;vector-effect:none;fill:#00ff00;fill-opacity:1;fill-rule:evenodd;stroke:none;stroke-width:1;stroke-linecap:butt;stroke-linejoin:miter;stroke-miterlimit:4;stroke-dasharray:none;stroke-dashoffset:0;stroke-opacity:1;paint-order:normal"
       id="triger_in"
       cx="6.2441721"
       cy="111.88758"
       r="4"
       inkscape:label="trigger_in" />
    <g
       aria-label="trig"
       id="text47168-9-9"
       style="font-size:4.23333px;line-height:1.25;font-family:Arial;-inkscape-font-specification:Arial;display:inline;stroke-width:0.264583"
       transform="translate(1.0583333)">
      <path
         d="m 20.056964,120.02488 0.05374,0.32866 q -0.157096,0.0331 -0.28112,0.0331 -0.202571,0 -0.314192,-0.0641 -0.111621,-0.0641 -0.157096,-0.16743 -0.04548,-0.10542 -0.04548,-0.44028 v -1.26297 h -0.272851 v -0.28939 h 0.272851 v -0.54363 l 0.370003,-0.22325 v 0.76688 h 0.374137 v 0.28939 h -0.374137 v 1.28364 q 0,0.15916 0.0186,0.20464 0.02067,0.0455 0.06408,0.0724 0.04547,0.0269 0.128157,0.0269 0.06201,0 0.163297,-0.0145 z"
         id="path110899" />
      <path
         d="m 20.414565,120.35767 v -2.19521 h 0.334863 v 0.3328 q 0.128157,-0.23358 0.235644,-0.30799 0.109554,-0.0744 0.239779,-0.0744 0.188102,0 0.382405,0.11989 l -0.128157,0.3452 q -0.136426,-0.0806 -0.272852,-0.0806 -0.121956,0 -0.219108,0.0744 -0.09715,0.0723 -0.138492,0.20257 -0.06201,0.19844 -0.06201,0.43408 v 1.14928 z"
         id="path110901" />
      <path
         d="m 21.834632,117.75525 v -0.42788 h 0.37207 v 0.42788 z m 0,2.60242 v -2.19521 h 0.37207 v 2.19521 z"
         id="path110903" />
      <path
         d="m 22.70693,120.53957 0.361734,0.0538 q 0.02274,0.16743 0.126091,0.24391 0.138492,0.10335 0.378271,0.10335 0.258382,0 0.398942,-0.10335 0.140559,-0.10335 0.190169,-0.28939 0.02894,-0.11369 0.02687,-0.47749 -0.243912,0.28732 -0.607714,0.28732 -0.452685,0 -0.700732,-0.32659 -0.248046,-0.3266 -0.248046,-0.78342 0,-0.31419 0.113688,-0.57877 0.113688,-0.26665 0.328661,-0.41134 0.217041,-0.1447 0.508496,-0.1447 0.388607,0 0.640787,0.31419 v -0.26458 h 0.343132 v 1.89756 q 0,0.51263 -0.10542,0.72553 -0.103353,0.21498 -0.330729,0.339 -0.225309,0.12402 -0.556038,0.12402 -0.392741,0 -0.634586,-0.17776 -0.241846,-0.1757 -0.233577,-0.53124 z m 0.307991,-1.31878 q 0,0.43202 0.171565,0.63046 0.171566,0.19843 0.429948,0.19843 0.256315,0 0.429948,-0.19637 0.173632,-0.19844 0.173632,-0.62011 0,-0.40308 -0.179834,-0.60772 -0.177766,-0.20464 -0.429947,-0.20464 -0.248047,0 -0.421679,0.20257 -0.173633,0.20051 -0.173633,0.59738 z"
         id="path110905" />
    </g>
    <circle
       style="display:inline;vector-effect:none;fill:#0000ff;fill-opacity:1;fill-rule:evenodd;stroke:none;stroke-width:1;stroke-linecap:butt;stroke-linejoin:miter;stroke-miterlimit:4;stroke-dasharray:none;stroke-dashoffset:0;stroke-opacity:1;paint-order:normal"
       id="triger_out"
       cx="22.974436"
       cy="112.01493"
       r="4"
       inkscape:label="trigger_out" />
    <circle
       style="display:inline;vector-effect:none;fill:#00ff00;fill-opacity:1;fill-rule:evenodd;stroke:none;stroke-width:1;stroke-linecap:butt;stroke-linejoin:miter;stroke-miterlimit:4;stroke-dasharray:none;stroke-dashoffset:0;stroke-opacity:1;paint-order:normal"
       id="reset_in"
       cx="5.4428525"
       cy="92.613617"
       r="4"
       inkscape:label="reset_in" />
    <circle
       style="display:inline;vector-effect:none;fill:#ff0000;fill-opacity:1;fill-rule:evenodd;stroke:none;stroke-width:1;stroke-linecap:butt;stroke-linejoin:miter;stroke-miterlimit:4;stroke-dasharray:none;stroke-dashoffset:0;stroke-opacity:1;paint-order:normal"
       id="reset_btn"
       cx="25.22991"
       cy="92.613617"
       r="4"
       inkscape:label="reset_btn" />
    <circle
       inkscape:label="led01"
       r="1"
       cy="104.12658"
       cx="18.308104"
       id="led01"
       style="display:inline;opacity:1;vector-effect:none;fill:#ff00ff;fill-opacity:1;fill-rule:evenodd;stroke:none;stroke-width:1;stroke-linecap:butt;stroke-linejoin:miter;stroke-miterlimit:4;stroke-dasharray:none;stroke-dashoffset:0;stroke-opacity:1;paint-order:normal" />
    <circle
       inkscape:label="led02"
       r="1"
       cy="100.45573"
       cx="11.166781"
       id="led02"
       style="display:inline;vector-effect:none;fill:#ff00ff;fill-opacity:1;fill-rule:evenodd;stroke:none;stroke-width:1;stroke-linecap:butt;stroke-linejoin:miter;stroke-miterlimit:4;stroke-dasharray:none;stroke-dashoffset:0;stroke-opacity:1;paint-order:normal" />
    <circle
       inkscape:label="led03"
       r="1"
       cy="96.3106"
       cx="18.308104"
       id="led03"
       style="display:inline;vector-effect:none;fill:#ff00ff;fill-opacity:1;fill-rule:evenodd;stroke:none;stroke-width:1;stroke-linecap:butt;stroke-linejoin:miter;stroke-miterlimit:4;stroke-dasharray:none;stroke-dashoffset:0;stroke-opacity:1;paint-order:normal" />
    <circle
       inkscape:label="led04"
       r="1"
       cy="92.639748"
       cx="11.166781"
       id="led04"
       style="display:inline;vector-effect:none;fill:#ff00ff;fill-opacity:1;fill-rule:evenodd;stroke:none;stroke-width:1;stroke-linecap:butt;stroke-linejoin:miter;stroke-miterlimit:4;stroke-dasharray:none;stroke-dashoffset:0;stroke-opacity:1;paint-order:normal" />
    <circle
       inkscape:label="led05"
       r="1"
       cy="88.595802"
       cx="18.308104"
       id="led05"
       style="display:inline;vector-effect:none;fill:#ff00ff;fill-opacity:1;fill-rule:evenodd;stroke:none;stroke-width:1;stroke-linecap:butt;stroke-linejoin:miter;stroke-miterlimit:4;stroke-dasharray:none;stroke-dashoffset:0;stroke-opacity:1;paint-order:normal" />
    <circle
       inkscape:label="led06"
       r="1"
       cy="84.92495"
       cx="11.166781"
       id="led06"
       style="display:inline;vector-effect:none;fill:#ff00ff;fill-opacity:1;fill-rule:evenodd;stroke:none;stroke-width:1;stroke-linecap:butt;stroke-linejoin:miter;stroke-miterlimit:4;stroke-dasharray:none;stroke-dashoffset:0;stroke-opacity:1;paint-order:normal" />
    <circle
       inkscape:label="led07"
       r="1"
       cy="80.779823"
       cx="18.308104"
       id="led07"
       style="display:inline;vector-effect:none;fill:#ff00ff;fill-opacity:1;fill-rule:evenodd;stroke:none;stroke-width:1;stroke-linecap:butt;stroke-linejoin:miter;stroke-miterlimit:4;stroke-dasharray:none;stroke-dashoffset:0;stroke-opacity:1;paint-order:normal" />
    <circle
       inkscape:label="led08"
       r="1"
       cy="77.108971"
       cx="11.166781"
       id="led08"
       style="display:inline;vector-effect:none;fill:#ff00ff;fill-opacity:1;fill-rule:evenodd;stroke:none;stroke-width:1;stroke-linecap:butt;stroke-linejoin:miter;stroke-miterlimit:4;stroke-dasharray:none;stroke-dashoffset:0;stroke-opacity:1;paint-order:normal" />
    <circle
       inkscape:label="led09"
       r="1"
       cy="72.775482"
       cx="18.308104"
       id="led09"
       style="display:inline;vector-effect:none;fill:#ff00ff;fill-opacity:1;fill-rule:evenodd;stroke:none;stroke-width:1;stroke-linecap:butt;stroke-linejoin:miter;stroke-miterlimit:4;stroke-dasharray:none;stroke-dashoffset:0;stroke-opacity:1;paint-order:normal" />
    <circle
       inkscape:label="led10"
       r="1"
       cy="69.10463"
       cx="11.166781"
       id="led10"
       style="display:inline;vector-effect:none;fill:#ff00ff;fill-opacity:1;fill-rule:evenodd;stroke:none;stroke-width:1;stroke-linecap:butt;stroke-linejoin:miter;stroke-miterlimit:4;stroke-dasharray:none;stroke-dashoffset:0;stroke-opacity:1;paint-order:normal" />
    <circle
       inkscape:label="led11"
       r="1"
       cy="64.959503"
       cx="18.308104"
       id="led11"
       style="display:inline;vector-effect:none;fill:#ff00ff;fill-opacity:1;fill-rule:evenodd;stroke:none;stroke-width:1;stroke-linecap:butt;stroke-linejoin:miter;stroke-miterlimit:4;stroke-dasharray:none;stroke-dashoffset:0;stroke-opacity:1;paint-order:normal" />
    <circle
       inkscape:label="led12"
       r="1"
       cy="61.288651"
       cx="11.166781"
       id="led12"
       style="display:inline;vector-effect:none;fill:#ff00ff;fill-opacity:1;fill-rule:evenodd;stroke:none;stroke-width:1;stroke-linecap:butt;stroke-linejoin:miter;stroke-miterlimit:4;stroke-dasharray:none;stroke-dashoffset:0;stroke-opacity:1;paint-order:normal" />
    <circle
       inkscape:label="led13"
       r="1"
       cy="57.244709"
       cx="18.308104"
       id="led13"
       style="display:inline;vector-effect:none;fill:#ff00ff;fill-opacity:1;fill-rule:evenodd;stroke:none;stroke-width:1;stroke-linecap:butt;stroke-linejoin:miter;stroke-miterlimit:4;stroke-dasharray:none;stroke-dashoffset:0;stroke-opacity:1;paint-order:normal" />
    <circle
       inkscape:label="led14"
       r="1"
       cy="53.573856"
       cx="11.166781"
       id="led14"
       style="display:inline;vector-effect:none;fill:#ff00ff;fill-opacity:1;fill-rule:evenodd;stroke:none;stroke-width:1;stroke-linecap:butt;stroke-linejoin:miter;stroke-miterlimit:4;stroke-dasharray:none;stroke-dashoffset:0;stroke-opacity:1;paint-order:normal" />
    <circle
       inkscape:label="led15"
       r="1"
       cy="49.42873"
       cx="18.308104"
       id="led15"
       style="display:inline;vector-effect:none;fill:#ff00ff;fill-opacity:1;fill-rule:evenodd;stroke:none;stroke-width:1;stroke-linecap:butt;stroke-linejoin:miter;stroke-miterlimit:4;stroke-dasharray:none;stroke-dashoffset:0;stroke-opacity:1;paint-order:normal" />
    <circle
       inkscape:label="led16"
       r="1"
       cy="45.757877"
       cx="11.166781"
       id="led16"
       style="display:inline;vector-effect:none;fill:#ff00ff;fill-opacity:1;fill-rule:evenodd;stroke:none;stroke-width:1;stroke-linecap:butt;stroke-linejoin:miter;stroke-miterlimit:4;stroke-dasharray:none;stroke-dashoffset:0;stroke-opacity:1;paint-order:normal" />
    <circle
       inkscape:label="led17"
       r="1"
       cy="42.046017"
       cx="18.308104"
       id="led17"
       style="display:inline;vector-effect:none;fill:#ff00ff;fill-opacity:1;fill-rule:evenodd;stroke:none;stroke-width:1;stroke-linecap:butt;stroke-linejoin:miter;stroke-miterlimit:4;stroke-dasharray:none;stroke-dashoffset:0;stroke-opacity:1;paint-order:normal" />
    <circle
       inkscape:label="led18"
       r="1"
       cy="38.375164"
       cx="11.166781"
       id="led18"
       style="display:inline;vector-effect:none;fill:#ff00ff;fill-opacity:1;fill-rule:evenodd;stroke:none;stroke-width:1;stroke-linecap:butt;stroke-linejoin:miter;stroke-miterlimit:4;stroke-dasharray:none;stroke-dashoffset:0;stroke-opacity:1;paint-order:normal" />
    <circle
       inkscape:label="led19"
       r="1"
       cy="34.230038"
       cx="18.308104"
       id="led19"
       style="display:inline;vector-effect:none;fill:#ff00ff;fill-opacity:1;fill-rule:evenodd;stroke:none;stroke-width:1;stroke-linecap:butt;stroke-linejoin:miter;stroke-miterlimit:4;stroke-dasharray:none;stroke-dashoffset:0;stroke-opacity:1;paint-order:normal" />
    <circle
       inkscape:label="led20"
       r="1"
       cy="30.559185"
       cx="11.166781"
       id="led20"
       style="display:inline;vector-effect:none;fill:#ff00ff;fill-opacity:1;fill-rule:evenodd;stroke:none;stroke-width:1;stroke-linecap:butt;stroke-linejoin:miter;stroke-miterlimit:4;stroke-dasharray:none;stroke-dashoffset:0;stroke-opacity:1;paint-order:normal" />
    <circle
       inkscape:label="led21"
       r="1"
       cy="26.51524"
       cx="18.308104"
       id="led21"
       style="display:inline;vector-effect:none;fill:#ff00ff;fill-opacity:1;fill-rule:evenodd;stroke:none;stroke-width:1;stroke-linecap:butt;stroke-linejoin:miter;stroke-miterlimit:4;stroke-dasharray:none;stroke-dashoffset:0;stroke-opacity:1;paint-order:normal" />
    <circle
       inkscape:label="led22"
       r="1"
       cy="22.844379"
       cx="11.166781"
       id="led22"
       style="display:inline;vector-effect:none;fill:#ff00ff;fill-opacity:1;fill-rule:evenodd;stroke:none;stroke-width:1;stroke-linecap:butt;stroke-linejoin:miter;stroke-miterlimit:4;stroke-dasharray:none;stroke-dashoffset:0;stroke-opacity:1;paint-order:normal" />
    <circle
       inkscape:label="led23"
       r="1"
       cy="18.699247"
       cx="18.308104"
       id="led23"
       style="display:inline;vector-effect:none;fill:#ff00ff;fill-opacity:1;fill-rule:evenodd;stroke:none;stroke-width:1;stroke-linecap:butt;stroke-linejoin:miter;stroke-miterlimit:4;stroke-dasharray:none;stroke-dashoffset:0;stroke-opacity:1;paint-order:normal" />
    <circle
       inkscape:label="led00"
       r="1"
       cy="107.54159"
       cx="11.243049"
       id="led00"
       style="display:inline;vector-effect:none;fill:#ff00ff;fill-opacity:1;fill-rule:evenodd;stroke:none;stroke-width:1;stroke-linecap:butt;stroke-linejoin:miter;stroke-miterlimit:4;stroke-dasharray:none;stroke-dashoffset:0;stroke-opacity:1;paint-order:normal" />
  </g>
</svg>
