<?xml version="1.0" encoding="UTF-8" standalone="no"?>
<!-- Generator: Adobe Illustrator 16.0.0, SVG Export Plug-In . SVG Version: 6.00 Build 0)  -->

<svg
   version="1.1"
   id="svg12553"
   x="0px"
   y="0px"
   width="28px"
   height="380px"
   viewBox="0 0 28 380"
   enable-background="new 0 0 28 380"
   xml:space="preserve"
   sodipodi:docname="DISCSIGN_LABEL2.svg"
   inkscape:version="1.1.1 (c3084ef, 2021-09-22)"
   xmlns:inkscape="http://www.inkscape.org/namespaces/inkscape"
   xmlns:sodipodi="http://sodipodi.sourceforge.net/DTD/sodipodi-0.dtd"
   xmlns="http://www.w3.org/2000/svg"
   xmlns:svg="http://www.w3.org/2000/svg"><defs
   id="defs135" /><sodipodi:namedview
   id="namedview133"
   pagecolor="#ffffff"
   bordercolor="#666666"
   borderopacity="1.0"
   inkscape:pageshadow="2"
   inkscape:pageopacity="0.0"
   inkscape:pagecheckerboard="0"
   showgrid="false"
   inkscape:zoom="1.6552632"
   inkscape:cx="14.197138"
   inkscape:cy="190"
   inkscape:window-width="1312"
   inkscape:window-height="855"
   inkscape:window-x="40"
   inkscape:window-y="23"
   inkscape:window-maximized="0"
   inkscape:current-layer="svg12553" />
<rect
   fill="#E6E6E6"
   width="30.001"
   height="380"
   id="rect108" />
<g
   id="g13122"
   transform="matrix(0.27602379,0,0,0.27602379,354.09618,57.736346)">
	<g
   id="g13178"
   transform="translate(-167.07644,-20.557569)">
		<g
   id="g13224"
   transform="translate(-99.2314,6.0949065)">
			<g
   id="path30351">
			</g>
		</g>
	</g>
</g>
<g
   id="text4860">
</g>
<g
   id="flowRoot1009">
</g>
<g
   id="g120">
	<path
   stroke="#000000"
   stroke-width="0.25"
   stroke-miterlimit="10"
   d="m 15.522,367.67 c -0.379,0.168 -1.084,0.309 -1.897,0.309 -2.213,0 -3.628,-1.346 -3.628,-3.502 0,-2.004 1.373,-3.643 3.922,-3.643 0.561,0 1.178,0.1 1.625,0.268 l -0.336,1.582 c -0.252,-0.104 -0.639,-0.211 -1.19,-0.211 -1.121,0 -1.849,0.799 -1.835,1.92 0,1.26 0.84,1.92 1.877,1.92 0.5,0 0.896,-0.086 1.214,-0.211 z"
   id="path116" />
	<path
   stroke="#000000"
   stroke-width="0.25"
   stroke-miterlimit="10"
   d="m 17.438,362.066 h 1.273 l 0.042,-0.448 c 0.11,-0.938 0.63,-3.039 3.039,-3.039 0.478,0 0.911,0.098 1.163,0.224 l -0.336,1.514 c -0.169,-0.062 -0.395,-0.127 -0.659,-0.127 -0.7,0 -1.036,0.506 -1.12,1.271 l -0.084,0.605 h 1.43 v 1.479 h -1.604 l -0.312,2.493 c -0.211,1.709 -0.785,3.062 -2.771,3.062 -0.575,-0.015 -1.063,-0.125 -1.274,-0.229 l 0.295,-1.479 c 0.209,0.084 0.438,0.104 0.658,0.104 0.699,-0.021 0.938,-0.396 1.139,-1.98 l 0.229,-1.97 h -1.104 v -1.479 h -0.004 z"
   id="path118" />
</g>
<path
   fill="#27282d"
   d="m 26.998,340.18333 c 0,1.54241 -1.27,2.79667 -2.834,2.79667 H 6.832 c -1.564,0 -2.834,-1.25426 -2.834,-2.79667 V 45.776674 C 3.998,44.232287 5.268,42.98 6.832,42.98 h 17.333 c 1.565,0 2.834,1.252287 2.834,2.796674 z"
   id="path122"
   style="stroke-width:0.993393" />

<g
   aria-label="Lbl2"
   id="text2353"
   style="font-weight:bold;font-size:13.3333px;line-height:1.25;font-family:Helvetica;-inkscape-font-specification:'Helvetica Bold'"
   transform="translate(0.89999997,-3.4964947)"><g
     aria-label="Lbl2"
     id="text4352"
     style="font-family:Arial;-inkscape-font-specification:'Arial Bold'"><path
       d="m 1.8,30.686804 v -9.466122 h 1.9270785 v 7.858053 h 4.7916546 v 1.608069 z"
       id="path226" /><path
       d="m 9.8077922,30.686804 v -9.544247 h 1.8294228 v 3.437491 q 0.846352,-0.963539 2.005203,-0.963539 1.263018,0 2.089838,0.917967 0.826821,0.911456 0.826821,2.623691 0,1.770829 -0.846352,2.727858 -0.839841,0.957028 -2.044265,0.957028 -0.592447,0 -1.171872,-0.292968 -0.572916,-0.299478 -0.989581,-0.878904 v 1.015623 z m 1.8164018,-3.606762 q 0,1.074216 0.338541,1.588538 0.475259,0.729165 1.263017,0.729165 0.605468,0 1.028644,-0.514322 0.429686,-0.520832 0.429686,-1.63411 0,-1.184893 -0.429686,-1.705725 -0.429687,-0.527343 -1.100258,-0.527343 -0.65755,0 -1.093747,0.514322 -0.436197,0.507811 -0.436197,1.549475 z"
       id="path228" /><path
       d="m 18.036938,30.686804 v -9.544247 h 1.829422 v 9.544247 z"
       id="path230" /><path
       d="m 27.52259,28.987589 v 1.699215 h -6.412744 q 0.104167,-0.963539 0.624999,-1.822912 0.520832,-0.865883 2.057286,-2.291661 1.236976,-1.152341 1.516923,-1.562496 0.377603,-0.566405 0.377603,-1.119789 0,-0.611978 -0.33203,-0.937498 -0.32552,-0.33203 -0.904946,-0.33203 -0.572915,0 -0.911456,0.345051 -0.33854,0.345051 -0.390624,1.145831 l -1.822912,-0.182292 q 0.16276,-1.510412 1.022133,-2.167963 0.859373,-0.65755 2.148432,-0.65755 1.412757,0 2.220047,0.761717 0.807289,0.761716 0.807289,1.894526 0,0.64453 -0.234374,1.230466 -0.227864,0.579425 -0.729165,1.217444 -0.33203,0.423176 -1.197914,1.217445 -0.865883,0.794269 -1.100257,1.054685 -0.227864,0.260416 -0.371093,0.507811 z"
       id="path232" /></g></g><g
   aria-label="ds"
   id="text27563"
   style="font-style:italic;font-weight:bold;font-size:13.3333px;line-height:1.25;font-family:Arial;-inkscape-font-specification:'Arial Bold Italic'"><path
     d="m 19.132797,355.47855 h -1.770829 l 0.156249,-0.7487 q -0.507811,0.48828 -1.002601,0.70312 -0.48828,0.20834 -1.106768,0.20834 -1.074216,0 -1.744788,-0.72917 Q 13,354.17647 13,352.74418 q 0,-1.66015 0.937497,-3.0013 0.937498,-1.34114 2.480463,-1.34114 1.393225,0 2.089838,1.10677 l 0.748696,-3.57421 h 1.868485 z m -4.316396,-2.8125 q 0,0.74219 0.371093,1.15885 0.377603,0.41667 0.924477,0.41667 0.507811,0 0.944008,-0.34505 0.442707,-0.35156 0.703123,-1.06771 0.266927,-0.71614 0.266927,-1.37369 0,-0.7487 -0.403645,-1.21094 -0.403645,-0.46223 -0.930987,-0.46223 -0.820311,0 -1.347653,0.91145 -0.527343,0.91146 -0.527343,1.97265 z"
     style="fill:#800080"
     id="path253" /><path
     d="m 20.65623,353.54496 1.809891,-0.28646 q 0.240885,0.57291 0.598957,0.8138 0.358072,0.23437 0.97656,0.23437 0.63802,0 1.022133,-0.28645 0.266927,-0.19532 0.266927,-0.47526 0,-0.1888 -0.136719,-0.33854 -0.143229,-0.14323 -0.774737,-0.35157 -1.692705,-0.55989 -2.096349,-0.88541 -0.631509,-0.50781 -0.631509,-1.32812 0,-0.82031 0.611977,-1.41276 0.852863,-0.82682 2.532546,-0.82682 1.334632,0 2.018224,0.48828 0.683592,0.48828 0.865883,1.32161 l -1.725256,0.29948 q -0.136718,-0.3776 -0.442707,-0.5664 -0.416665,-0.25391 -1.002601,-0.25391 -0.585937,0 -0.846353,0.19531 -0.253905,0.19531 -0.253905,0.44922 0,0.26042 0.260416,0.42969 0.16276,0.10416 1.048174,0.36458 1.367184,0.39713 1.829423,0.78125 0.65104,0.54036 0.65104,1.30208 0,0.98307 -0.826821,1.70572 -0.826821,0.72266 -2.330723,0.72266 -1.497392,0 -2.317703,-0.54688 -0.8138,-0.55338 -1.106768,-1.54947 z"
     style="fill:#800080"
     id="path255" /></g></svg>
